<?xml version="1.0" encoding="UTF-8" standalone="no"?>
<!DOCTYPE svg PUBLIC "-//W3C//DTD SVG 1.1//EN" "http://www.w3.org/Graphics/SVG/1.1/DTD/svg11.dtd">
<svg width="100%" height="100%" viewBox="0 0 3077 793" version="1.1" xmlns="http://www.w3.org/2000/svg" xmlns:xlink="http://www.w3.org/1999/xlink" xml:space="preserve" xmlns:serif="http://www.serif.com/" style="fill-rule:evenodd;clip-rule:evenodd;stroke-linejoin:round;stroke-miterlimit:2;">
    <g>
        <path d="M92.541,146.041C116.372,169.724 141.245,192.331 167.292,213.56C212.355,250.286 260.755,282.941 311.954,310.499C332.37,321.489 353.223,331.668 374.454,340.989C391.818,348.612 409.492,355.486 426.775,363.299C454.66,375.906 481.869,390.001 508.278,405.461C563.508,437.792 615.167,476.085 662.684,518.929C688.662,542.352 713.349,567.151 736.883,593.023L738.964,595.326C728.081,613.999 715.715,631.702 702.035,648.269L700.088,646.32C676.257,622.636 651.384,600.03 625.337,578.801C580.274,542.075 531.874,509.42 480.675,481.862C460.259,470.872 439.406,460.692 418.175,451.372C400.811,443.749 383.137,436.875 365.854,429.062C337.969,416.455 310.76,402.36 284.35,386.9C229.121,354.569 177.462,316.276 129.945,273.432C103.967,250.009 79.28,225.21 55.746,199.338L53.664,197.034C64.548,178.362 76.914,160.658 90.593,144.092L92.541,146.041Z" style="fill:#282828;"/>
        <path d="M36.315,234.22C62.909,265.089 91.097,294.557 121.033,322.206C172.088,369.359 228.058,411.247 288.233,446.066C314.102,461.035 340.729,474.694 367.996,486.933C383.867,494.056 400.067,500.384 416.012,507.332C434.498,515.387 452.699,524.092 470.577,533.417C518.071,558.188 563.245,587.334 605.632,620.072C628.44,637.686 650.389,656.363 671.596,675.871L674.384,678.457C657.644,694.949 639.447,709.965 620,723.296L618.845,722.367C568.36,682.122 514.04,646.811 456.227,618.004C441.574,610.703 426.715,603.816 411.671,597.359C397.137,591.12 382.43,585.315 367.996,578.837C340.729,566.598 314.102,552.939 288.233,537.97C222.312,499.826 161.461,453.204 106.554,400.473C73.411,368.643 42.491,334.585 13.632,298.835L12.443,297.353C18.181,275.039 25.814,253.482 35.158,232.868L36.315,234.22Z" style="fill:#282828;"/>
        <path d="M5.053,344.945C34.69,382.595 66.583,418.441 100.893,451.9C157.274,506.882 220.035,555.415 288.233,594.876C314.102,609.845 340.729,623.504 367.996,635.743C381.709,641.898 395.667,647.444 409.493,653.333C421.015,658.241 432.43,663.401 443.727,668.806C489.548,690.728 533.278,716.754 574.771,746.033L578.075,748.387C549.221,763.319 518.311,774.808 485.886,782.312L484.679,781.65C463.642,770.256 442.215,759.621 420.333,749.943C409.47,745.139 398.459,740.71 387.508,736.116C379.526,732.768 371.594,729.3 363.717,725.712C336.578,713.354 310.085,699.585 284.35,684.521C215.39,644.152 152.06,594.504 95.306,538.314C62.299,505.635 31.567,470.741 2.952,434.163L1.645,432.483C0.555,420.506 0,408.408 0,396.18C0,378.157 1.206,360.413 3.543,343.015L5.053,344.945Z" style="fill:#282828;"/>
        <path d="M15.821,507.263C64.638,567.351 119.463,622.558 180.351,670.447C243.029,719.743 311.903,760.948 385.319,792.101L385.937,792.361C210.3,787.827 62.95,668.815 15.797,507.233L15.821,507.263Z" style="fill:#282828;"/>
        <path d="M173.783,69.994C224.269,110.239 278.589,145.55 336.402,174.357C351.055,181.658 365.914,188.545 380.957,195.002C395.492,201.241 410.199,207.046 424.633,213.524C451.9,225.763 478.527,239.422 504.395,254.39C570.317,292.535 631.168,339.157 686.074,391.888C719.217,423.718 750.137,457.776 778.996,493.526L780.186,495.008C774.448,517.322 766.815,538.878 757.47,559.493L756.314,558.141C729.72,527.272 701.532,497.804 671.596,470.155C620.541,423.002 564.571,381.114 504.395,346.295C478.527,331.326 451.9,317.667 424.633,305.428C408.762,298.305 392.561,291.977 376.616,285.029C358.131,276.974 339.93,268.269 322.052,258.944C274.557,234.173 229.384,205.027 186.996,172.289C164.189,154.675 142.24,135.998 121.033,116.489L118.245,113.904C134.985,97.412 153.182,82.396 172.629,69.065L173.783,69.994Z" style="fill:#282828;"/>
        <path d="M307.95,10.71C328.987,22.104 350.414,32.74 372.296,42.418C383.158,47.222 394.17,51.651 405.121,56.244C413.103,59.592 421.035,63.061 428.912,66.649C456.05,79.007 482.544,92.775 508.278,107.84C577.239,148.209 640.568,197.857 697.323,254.046C730.33,286.726 761.062,321.62 789.677,358.197L790.983,359.878C792.074,371.855 792.629,383.953 792.629,396.18C792.629,414.204 791.423,431.948 789.086,449.346L787.576,447.416C757.939,409.766 726.046,373.92 691.736,340.461C635.355,285.478 572.594,236.946 504.395,197.484C478.527,182.516 451.9,168.856 424.633,156.618C410.919,150.463 396.962,144.917 383.136,139.027C371.614,134.119 360.199,128.96 348.901,123.555C303.081,101.633 259.351,75.607 217.858,46.328L214.554,43.974C243.408,29.042 274.318,17.553 306.743,10.049L307.95,10.71Z" style="fill:#282828;"/>
        <path d="M406.692,0C582.329,4.534 729.679,123.546 776.832,285.127L776.808,285.098C727.991,225.009 673.166,169.803 612.277,121.914C549.6,72.618 480.726,31.413 407.31,0.26L406.692,0Z" style="fill:#282828;"/>
    </g>
    <g>
        <path d="M1402.77,723.867L1051.39,723.867C1048.33,723.867 1046.79,722.334 1046.79,719.268L1047.71,616.708L1278.59,175.653L1060.13,175.653C1057.37,175.653 1055.99,174.427 1055.99,171.974L1055.99,73.093C1055.99,70.027 1057.37,68.494 1060.13,68.494L1400.93,68.494C1403.99,68.494 1405.53,70.027 1405.53,73.093L1405.53,174.733L1176.03,613.488L1402.77,613.488C1405.22,613.488 1406.44,615.175 1406.44,618.547L1407.36,719.268C1407.36,722.334 1405.83,723.867 1402.77,723.867Z" style="fill:#282828;fill-rule:nonzero;"/>
        <path d="M1774.37,723.867L1469.91,723.867C1467.46,723.867 1466.23,722.334 1466.23,719.268L1467.15,72.173C1467.15,69.72 1468.38,68.494 1470.83,68.494L1773.45,68.494C1775.91,68.494 1777.13,70.027 1777.13,73.093L1777.13,178.413C1777.13,180.865 1775.91,182.092 1773.45,182.092L1580.29,182.092L1580.29,329.263L1773.45,329.263C1775.91,329.263 1777.13,330.49 1777.13,332.943L1778.05,439.642C1778.05,442.095 1776.83,443.321 1774.37,443.321L1580.29,443.321L1580.29,607.969L1774.37,607.969C1776.83,607.969 1778.05,609.502 1778.05,612.569L1778.05,720.188C1778.05,722.641 1776.83,723.867 1774.37,723.867Z" style="fill:#282828;fill-rule:nonzero;"/>
        <path d="M2034.22,723.867L1865.44,723.867C1862.98,723.867 1861.76,722.334 1861.76,719.268L1863.6,72.173C1863.6,69.72 1864.82,68.494 1867.28,68.494L2048.48,68.494C2083.74,68.494 2115.78,77.079 2144.6,94.249C2172.81,111.419 2195.04,134.185 2211.29,162.546C2227.54,190.907 2235.66,221.644 2235.66,254.758C2235.66,281.739 2229.53,306.881 2217.27,330.183C2205,353.485 2190.44,372.342 2173.58,386.752C2191.67,404.842 2205.77,425.845 2215.89,449.76C2226.01,473.675 2231.07,498.817 2231.07,525.185C2231.07,561.672 2222.33,594.939 2204.85,624.986C2187.07,655.034 2163.3,679.026 2133.56,696.962C2103.82,714.899 2070.71,723.867 2034.22,723.867ZM2048.48,180.252L1976.73,180.252L1976.73,328.344L2048.48,328.344C2070.25,328.344 2087.88,320.602 2101.37,305.118C2114.86,289.634 2121.61,272.848 2121.61,254.758C2121.61,234.828 2114.4,217.428 2099.99,202.558C2085.58,187.688 2068.41,180.252 2048.48,180.252ZM2034.22,442.401L1976.73,442.401L1975.81,608.889L2034.22,608.889C2056.91,608.889 2076.38,600.611 2092.63,584.054C2108.88,567.497 2117.01,547.874 2117.01,525.185C2117.01,502.497 2108.88,483.027 2092.63,466.777C2076.38,450.527 2056.91,442.401 2034.22,442.401Z" style="fill:#282828;fill-rule:nonzero;"/>
        <path d="M2409.05,723.867L2302.35,723.867C2299.9,723.867 2298.67,722.334 2298.67,719.268L2300.51,72.173C2300.51,69.72 2301.74,68.494 2304.19,68.494L2494.59,68.494C2528.63,68.494 2559.9,76.772 2588.42,93.329C2616.93,109.886 2639.7,132.115 2656.71,160.016C2673.73,187.917 2682.24,219.498 2682.24,254.758C2682.24,277.753 2678.71,298.603 2671.66,317.306C2664.61,336.009 2656.41,351.799 2647.05,364.677C2637.7,377.554 2629.19,387.059 2621.53,393.191C2655.56,430.904 2672.58,475.208 2672.58,526.105L2673.5,719.268C2673.5,722.334 2671.97,723.867 2668.9,723.867L2562.2,723.867C2559.75,723.867 2558.52,722.947 2558.52,721.108L2558.52,526.105C2558.52,503.416 2550.55,483.793 2534.61,467.237C2518.66,450.68 2499.04,442.401 2475.74,442.401L2413.65,442.401L2412.73,719.268C2412.73,722.334 2411.5,723.867 2409.05,723.867ZM2494.59,181.172L2413.65,181.172L2413.65,329.263L2494.59,329.263C2513.91,329.263 2531.16,322.058 2546.33,307.648C2561.51,293.237 2569.1,275.607 2569.1,254.758C2569.1,234.828 2561.74,217.582 2547.02,203.018C2532.31,188.454 2514.83,181.172 2494.59,181.172Z" style="fill:#282828;fill-rule:nonzero;"/>
        <path d="M2702.01,719.268L2818.83,72.173C2819.44,69.72 2820.98,68.494 2823.43,68.494L2960.02,68.494C2962.48,68.494 2964.01,69.72 2964.62,72.173L3076.84,719.268C3077.15,722.334 3075.92,723.867 3073.16,723.867L2968.76,723.867C2965.7,723.867 2964.01,722.334 2963.7,719.268L2953.59,650.281L2825.27,650.281L2815.15,719.268C2814.85,722.334 2813.31,723.867 2810.55,723.867L2705.69,723.867C2703.24,723.867 2702.01,722.334 2702.01,719.268ZM2896.1,285.112L2890.58,250.159L2886.44,285.112L2844.13,549.561L2934.73,549.561L2896.1,285.112Z" style="fill:#282828;fill-rule:nonzero;"/>
    </g>
</svg>
